{"title":"Arrow S02E05 - 720p x264 HD [MKV,AC3,5.1] Ehhhh","uid":9160073,"size":441109590,"categoryP":"video","categoryS":"hd___tv_shows","magnet":"?xt=urn:btih:a491ba76bf56a0bb864f9157f8eccb850d9b47dc&amp;dn=Arrow+S02E05+-+720p+x264+HD+%5BMKV%2CAC3%2C5.1%5D+Ehhhh&amp;tr=udp%3A%2F%2Ftracker.openbittorrent.com%3A80&amp;tr=udp%3A%2F%2Fopen.demonii.com%3A1337&amp;tr=udp%3A%2F%2Ftracker.coppersurfer.tk%3A6969&amp;tr=udp%3A%2F%2Fexodus.desync.com%3A6969","seeders":1,"leechers":0,"uploader":"Ehhhhtozebec","files":-1,"time":1383859107,"description":"While Oliver tends to the Canary's wounds, he tries to get her to talk about where she came from but she refuses. However, after Oliver and the Canary are attacked at the Queen mansion by a trained killer from the League of Assassins, she confesses to how she's connected with the nefarious group. Meanwhile with Moira facing multiple counts of murder and conspiracy for her part in the destruction of The Glades, the Assistant District Attorney offers her a choice - plead guilty now and avoid the death penalty or take your chances in court. Thea begs her mother to fight for her life but Moira seems resolute about taking the offer. Meanwhile, Oliver is furious with Laurel for joining the prosecution's team on his mother's case. \n\nGeneral\nFormat                                   : Matroska\nFormat version                           : Version 4 / Version 2\nFile size                                : 420 MiB\nDuration                                 : 42mn 5s\nOverall bit rate                         : 1 394 Kbps\nEncoded date                             : UTC 2013-11-07 18:26:44\nWriting application                      : mkvmerge v6.2.0 ('Promised Land') built on Apr 28 2013 12:22:01\nWriting library                          : libebml v1.3.0 + libmatroska v1.4.0\n\nVideo\nID                                       : 1\nFormat                                   : AVC\nFormat/Info                              : Advanced Video Codec\nFormat profile                           : &lt;a class=&quot;__cf_email__&quot; href=&quot;/cdn-cgi/l/email-protection&quot; data-cfemail=&quot;da92b3bdb29a96eef4eb&quot;&gt;[email&amp;#160;protected]&lt;/a&gt;&lt;script cf-hash='f9e31' type=&quot;text/javascript&quot;&gt;\n/* &lt;![CDATA[ */!function(){try{var t=&quot;currentScript&quot;in document?document.currentScript:function(){for(var t=document.getElementsByTagName(&quot;script&quot;),e=t.length;e--;)if(t[e].getAttribute(&quot;cf-hash&quot;))return t[e]}();if(t&amp;&amp;t.previousSibling){var e,r,n,i,c=t.previousSibling,a=c.getAttribute(&quot;data-cfemail&quot;);if(a){for(e=&quot;&quot;,r=parseInt(a.substr(0,2),16),n=2;a.length-n;n+=2)i=parseInt(a.substr(n,2),16)^r,e+=String.fromCharCode(i);e=document.createTextNode(e),c.parentNode.replaceChild(e,c)}}}catch(u){}}();/* ]]&gt; */&lt;/script&gt;\nFormat settings, CABAC                   : Yes\nFormat settings, ReFrames                : 14 frames\nCodec ID                                 : V_MPEG4/ISO/AVC\nDuration                                 : 42mn 5s\nBit rate                                 : 1 010 Kbps\nWidth                                    : 1 280 pixels\nHeight                                   : 720 pixels\nDisplay aspect ratio                     : 16:9\nFrame rate mode                          : Constant\nFrame rate                               : 23.976 fps\nColor space                              : YUV\nChroma subsampling                       : 4:2:0\nBit depth                                : 8 bits\nScan type                                : Progressive\nBits/(Pixel*Frame)                       : 0.046\nStream size                              : 296 MiB (70%)\nWriting library                          : x264 core 138 r2359+704+48 3f879a0 tMod [8-bit@all X86]\nDefault                                  : Yes\nForced                                   : No\n\nAudio\nID                                       : 2\nFormat                                   : AC-3\nFormat/Info                              : Audio Coding 3\nMode extension                           : CM (complete main)\nFormat settings, Endianness              : Big\nCodec ID                                 : A_AC3\nDuration                                 : 42mn 5s\nBit rate mode                            : Constant\nBit rate                                 : 384 Kbps\nChannel(s)                               : 6 channels\nChannel positions                        : Front: L C R, Side: L R, LFE\nSampling rate                            : 48.0 KHz\nBit depth                                : 16 bits\nCompression mode                         : Lossy\nStream size                              : 116 MiB (28%)\nDefault                                  : Yes\nForced                                   : No\n\n","torrent":{"xt":"urn:btih:a491ba76bf56a0bb864f9157f8eccb850d9b47dc","amp;dn":"Arrow+S02E05+-+720p+x264+HD+%5BMKV%2CAC3%2C5.1%5D+Ehhhh","amp;tr":["udp%3A%2F%2Ftracker.openbittorrent.com%3A80","udp%3A%2F%2Fopen.demonii.com%3A1337","udp%3A%2F%2Ftracker.coppersurfer.tk%3A6969","udp%3A%2F%2Fexodus.desync.com%3A6969"],"infoHash":"a491ba76bf56a0bb864f9157f8eccb850d9b47dc","infoHashBuffer":{"type":"Buffer","data":[164,145,186,118,191,86,160,187,134,79,145,87,248,236,203,133,13,155,71,220]},"announce":[],"urlList":[]}}